Two young wolves at opposite ends of their pack's social order are thrown together into a foreign land and need each other to return home, but love complicates everything...
 
http://www.imdb.com/title/tt1213012/

Subs (srt) : Dutch, English.

Kate en Humphrey zijn twee jonge wolven die een fijn leventje hebben bij hun ouders en roedel in het bos. Kate is een erg aanwezige wolvin die alles tot in de puntjes geregeld wil hebben. Niets ontgaat haar nauwkeurige visie. Humphrey leeft meer van moment tot moment en doet het vooral rustig aan. Dan worden de twee jonge wolven gevangen genomen door parkwachters en ver van hun vertrouwde omgeving vandaan gehaald. Kate en Humphrey ontsnappen, maar staan er plots helemaal alleen voor..
 
http://www.moviemeter.nl/film/52124

Ondertitels (srt) : Engels, Nederlands.

General
Complete name                    : Alpha And Omega-AC3-DVDRip 2010 TBS\Alpha And Omega-AC3-DVDRip 2010 TBS.avi
Format                           : AVI
Format/Info                      : Audio Video Interleave
File size                        : 1.46 GiB
Duration                         : 1h 27mn
Overall bit rate                 : 2 377 Kbps
Writing application              : VirtualDubMod 1.5.4.1 (build 2178/release)
Writing library                  : VirtualDubMod build 2178/release
Source                           : Alpha.And.Omega.DVDR-Replica

Video
ID                               : 0
Format                           : MPEG-4 Visual
Format profile                   : Simple@L3
Format settings, BVOP            : No
Format settings, QPel            : No
Format settings, GMC             : No warppoints
Format settings, Matrix          : Default (H.263)
Codec ID                         : XVID
Codec ID/Hint                    : XviD
Duration                         : 1h 27mn
Bit rate                         : 1 920 Kbps
Width                            : 720 pixels
Height                           : 400 pixels
Display aspect ratio             : 16:9
Frame rate                       : 23.976 fps
Resolution                       : 8 bits
Colorimetry                      : 4:2:0
Scan type                        : Progressive
Bits/(Pixel*Frame)               : 0.278
Stream size                      : 1.18 GiB (81%)
Writing library                  : XviD 1.1.2 (UTC 2006-11-01)

Audio
ID                               : 1
Format                           : AC-3
Format/Info                      : Audio Coding 3
Codec ID                         : 2000
Duration                         : 1h 27mn
Bit rate mode                    : Constant
Bit rate                         : 448 Kbps
Channel(s)                       : 6 channels
Channel positions                : Front: L C R, Surround: L R, LFE
Sampling rate                    : 48.0 KHz
Stream size                      : 282 MiB (19%)
Alignment                        : Split accross interleaves
Interleave, duration             : 42 ms (1.00 video frame)
Interleave, preload duration     : 500 ms

Thanks to Unique Team Releases.

Blackbeard  TBS

Enjoy..